<svg width="45" height="46" viewBox="0 0 45 46" fill="none" xmlns="http://www.w3.org/2000/svg">
<g clip-path="url(#clip0_76_42)">
<path d="M44.255 0.5H0.745049C0.333545 0.5 0 0.914612 0 1.42589V44.4815C0 44.9928 0.333545 45.4074 0.745049 45.4074H44.255C44.6665 45.4074 45.0001 44.9929 45.0001 44.4815V1.42589C45 0.914612 44.6665 0.5 44.255 0.5ZM42.4563 2.35177L40.6154 4.63945H4.3846L2.54373 2.35177H42.4563ZM24.6708 33.1828C24.8931 33.4008 25.1203 33.6097 25.3512 33.8114C16.018 34.226 12.2103 38.1794 11.242 39.4164H4.82098V27.8069C6.60656 27.2695 8.44866 26.9966 10.3058 26.9966C15.5762 26.9966 20.5435 29.1357 24.6708 33.1828ZM8.8795 19.5538C8.8795 18.4794 9.58289 17.6051 10.4476 17.6051C11.3122 17.6051 12.0156 18.4792 12.0156 19.5538C12.0156 20.6283 11.3122 21.5024 10.4476 21.5024C9.58289 21.5024 8.8795 20.6282 8.8795 19.5538ZM26.964 35.627C27.2871 35.627 27.6185 35.632 27.9547 35.6406C28.3074 35.8348 28.6656 36.0121 29.0285 36.1722C28.8905 36.2206 28.7507 36.2708 28.6087 36.3233C26.2085 37.2109 24.4593 38.2505 23.3992 39.4159H13.6047C15.5112 37.8544 19.5328 35.627 26.964 35.627ZM29.0183 38.1039C30.5555 37.5342 31.9119 37.2074 32.2802 37.123C32.8514 37.2085 33.4266 37.254 34.0029 37.2559L34.0719 37.256C36.1419 37.256 38.1916 36.9374 40.1789 36.3094V39.416H26.1795C26.9663 38.9533 27.9178 38.5119 29.0183 38.1039ZM34.0719 35.4046L34.0066 35.4045C30.988 35.3941 28.0003 34.0889 25.5938 31.7291C21.4332 27.6496 16.4708 25.3929 11.1925 25.1655V23.2395C12.5198 22.825 13.5055 21.3301 13.5055 19.5538C13.5055 17.4582 12.1337 15.7535 10.4475 15.7535C8.7612 15.7535 7.3894 17.4582 7.3894 19.5538C7.3894 21.3301 8.37519 22.825 9.70242 23.2395V25.155C8.05263 25.2043 6.41689 25.4557 4.82089 25.9051V6.49112H40.1788V34.3948H40.1789C38.1974 35.0644 36.1459 35.4046 34.0719 35.4046ZM1.49001 3.66114L3.33088 5.94882V39.9587L1.49001 42.2463V3.66114ZM2.54355 43.5556L4.38451 41.2679H40.6153L42.4562 43.5556H2.54355ZM43.51 42.2462L41.6691 39.9586V5.94882L43.51 3.66114V42.2462Z" fill="#2F2E41"/>
<path d="M33.3004 9.07031C31.1149 9.07031 29.3369 11.2799 29.3369 13.9959C29.3369 16.7118 31.1149 18.9214 33.3004 18.9214C35.4859 18.9214 37.264 16.7118 37.264 13.9959C37.264 11.2799 35.4859 9.07031 33.3004 9.07031ZM33.3004 17.0697C31.9366 17.0697 30.8269 15.6908 30.8269 13.9959C30.8269 12.3009 31.9366 10.922 33.3004 10.922C34.6643 10.922 35.7739 12.3009 35.7739 13.9959C35.7739 15.6908 34.6643 17.0697 33.3004 17.0697Z" fill="#2F2E41"/>
<path d="M36.0363 23.4043C35.4146 23.4043 34.8484 23.7054 34.427 24.1964C34.0058 23.7054 33.4395 23.4043 32.8177 23.4043C32.4062 23.4043 32.0727 23.8188 32.0727 24.3302C32.0727 24.8415 32.4062 25.2561 32.8177 25.2561C33.2943 25.2561 33.682 25.7379 33.682 26.3301C33.682 26.8413 34.0154 27.2559 34.427 27.2559C34.8385 27.2559 35.1721 26.8414 35.1721 26.3301C35.1721 25.7379 35.5598 25.2561 36.0363 25.2561C36.4478 25.2561 36.7813 24.8416 36.7813 24.3302C36.7813 23.8188 36.4479 23.4043 36.0363 23.4043Z" fill="#2F2E41"/>
</g>
<defs>
<clipPath id="clip0_76_42">
<rect width="45" height="45" fill="white" transform="translate(0 0.5)"/>
</clipPath>
</defs>
</svg>
