<svg width="511" height="432" viewBox="0 0 511 432" fill="none" xmlns="http://www.w3.org/2000/svg">
<g clip-path="url(#clip0_76_8)">
<path d="M455.5 0.5H55.5C24.897 0.5 0 25.397 0 56V376C0 406.603 24.897 431.5 55.5 431.5H455.5C486.103 431.5 511 406.603 511 376V56C511 25.397 486.103 0.5 455.5 0.5ZM496 376C496 398.332 477.832 416.5 455.5 416.5H55.5C33.168 416.5 15 398.332 15 376V56C15 33.668 33.168 15.5 55.5 15.5H455.5C477.832 15.5 496 33.668 496 56V376Z" fill="#2F2E41"/>
<path d="M471.5 80.5H39.5C35.358 80.5 32 83.857 32 88C32 92.143 35.358 95.5 39.5 95.5H471.5C475.642 95.5 479 92.143 479 88C479 83.857 475.642 80.5 471.5 80.5Z" fill="#2F2E41"/>
<path d="M55.5 55.5C57.48 55.5 59.41 54.7 60.8 53.3C62.2 51.91 63 49.98 63 48C63 46.029 62.2 44.09 60.8 42.7C59.41 41.3 57.48 40.5 55.5 40.5C53.52 40.5 51.59 41.3 50.2 42.7C48.8 44.09 48 46.029 48 48C48 49.979 48.8 51.91 50.2 53.3C51.59 54.7 53.52 55.5 55.5 55.5Z" fill="#2F2E41"/>
<path d="M119.5 55.5C121.47 55.5 123.41 54.7 124.8 53.3C126.2 51.91 127 49.98 127 48C127 46.029 126.2 44.09 124.8 42.7C123.41 41.3 121.47 40.5 119.5 40.5C117.52 40.5 115.59 41.3 114.2 42.7C112.8 44.09 112 46.029 112 48C112 49.979 112.8 51.91 114.2 53.3C115.59 54.7 117.52 55.5 119.5 55.5Z" fill="#2F2E41"/>
<path d="M87.5 55.5C89.48 55.5 91.41 54.7 92.8 53.3C94.2 51.91 95 49.98 95 48C95 46.029 94.2 44.09 92.8 42.7C91.41 41.3 89.48 40.5 87.5 40.5C85.53 40.5 83.59 41.3 82.2 42.7C80.8 44.09 80 46.029 80 48C80 49.979 80.8 51.91 82.2 53.3C83.59 54.7 85.53 55.5 87.5 55.5Z" fill="#2F2E41"/>
<path d="M188.803 170.696C185.874 167.768 181.125 167.768 178.197 170.696L98.197 250.696C95.268 253.626 95.268 258.374 98.197 261.303L178.197 341.303C179.661 342.767 181.581 343.499 183.5 343.499C185.419 343.499 187.339 342.767 188.803 341.303C191.732 338.373 191.732 333.625 188.803 330.696L114.106 256L188.803 181.304C191.732 178.374 191.732 173.626 188.803 170.696Z" fill="#2F2E41"/>
<path d="M332.803 170.696C329.874 167.768 325.125 167.768 322.197 170.696C319.268 173.626 319.268 178.374 322.197 181.303L396.894 255.999L322.197 330.695C319.268 333.625 319.268 338.373 322.197 341.302C323.661 342.766 325.581 343.498 327.5 343.498C329.419 343.498 331.339 342.766 332.803 341.302L412.803 261.302C415.732 258.372 415.732 253.624 412.803 250.695L332.803 170.696Z" fill="#2F2E41"/>
<path d="M290.063 160.951C286.171 159.539 281.868 161.545 280.452 165.436L216.452 341.436C215.036 345.33 217.044 349.632 220.937 351.048C221.783 351.356 222.648 351.501 223.5 351.501C226.564 351.501 229.441 349.608 230.549 346.563L294.549 170.563C295.964 166.67 293.956 162.367 290.063 160.951Z" fill="#2F2E41"/>
</g>
<defs>
<clipPath id="clip0_76_8">
<rect width="511" height="431" fill="white" transform="translate(0 0.5)"/>
</clipPath>
</defs>
</svg>
