<svg width="45" height="46" viewBox="0 0 45 46" fill="none" xmlns="http://www.w3.org/2000/svg">
<g clip-path="url(#clip0_76_2)">
<mask id="mask0_76_2" style="mask-type:luminance" maskUnits="userSpaceOnUse" x="0" y="0" width="45" height="46">
<path d="M45 0.5H0V45.5H45V0.5Z" fill="white"/>
</mask>
<g mask="url(#mask0_76_2)">
<path d="M22.5 0.5C10.093 0.5 0 10.595 0 23C0 35.405 10.093 45.5 22.5 45.5C34.907 45.5 45 35.405 45 23C45 10.595 34.907 0.5 22.5 0.5ZM39.208 34.598H32.18L29.51 31.622L29.217 26.037L32.827 21.581L37.282 19.405L42.834 23.443C42.744 27.581 41.422 31.418 39.208 34.598ZM12.819 34.598H5.792C3.578 31.418 2.256 27.581 2.167 23.445L7.719 19.405L12.174 21.582L15.785 26.038L15.492 31.623L12.819 34.598ZM38.686 10.701L36.512 17.399L32.033 19.583L26.65 18.143L23.57 13.395V7.893L29.204 3.8C33.005 5.131 36.287 7.558 38.686 10.701ZM15.796 3.8L21.428 7.893V13.395L18.349 18.143L12.967 19.583L8.488 17.395L6.315 10.702C8.711 7.558 11.994 5.131 15.796 3.8ZM16.641 42.486L14.507 35.923L17.167 32.963L22.393 30.92L27.838 32.968L30.491 35.924L28.359 42.487C26.502 43.048 24.538 43.356 22.5 43.356C20.463 43.355 18.499 43.048 16.641 42.486Z" fill="#2F2E41"/>
</g>
</g>
<defs>
<clipPath id="clip0_76_2">
<rect width="45" height="45" fill="white" transform="translate(0 0.5)"/>
</clipPath>
</defs>
</svg>
