<svg width="50" height="51" viewBox="0 0 50 51" fill="none" xmlns="http://www.w3.org/2000/svg">
<g clip-path="url(#clip0_285_17)">
<path d="M24.7205 0.930785C24.3708 1.42496 23.561 2.5545 22.9352 3.4193L21.8125 4.99006L23.2665 7.03735C24.0763 8.16688 25.2543 9.79059 25.8985 10.673C26.5242 11.5378 27.7758 13.2851 28.6776 14.5558C30.8863 17.6797 31.0151 17.8209 31.1992 17.715C31.2912 17.6621 31.9354 16.8149 32.6348 15.8266C33.3157 14.8382 34.4385 13.2675 35.1011 12.3497C35.782 11.432 36.8311 9.94944 37.4569 9.08463C38.0827 8.20218 38.8557 7.14324 39.1686 6.70202C39.4815 6.26079 40.4754 4.86652 41.3772 3.61344C42.2791 2.34271 43.1993 1.08963 43.4386 0.824891C43.6779 0.542506 43.8619 0.242473 43.8619 0.154228C43.8619 0.0659828 40.1441 -0.0046133 34.6225 -0.0046133L25.3647 0.0130357L24.7205 0.930785Z" fill="#322841"/>
<path d="M7.54801 7.53125C7.08788 8.20191 6.31486 9.2432 5.85473 9.87857C5.3946 10.5139 4.62158 11.5729 4.14305 12.2612C3.66451 12.9318 2.59701 14.432 1.76878 15.5616C0.940542 16.6911 0.167523 17.7853 0.0570922 17.9795C-0.145365 18.3501 -0.12696 18.3501 4.41912 18.3501H8.98361L9.2965 17.8559C9.46215 17.5912 9.86706 17.0264 10.1984 16.5852C10.5112 16.144 11.2843 15.0674 11.91 14.2026C12.5358 13.3201 13.3456 12.2082 13.6953 11.7317C14.634 10.461 16.6402 7.65479 17.1371 6.94883L17.542 6.34876H12.9591H8.39465L7.54801 7.53125Z" fill="#322841"/>
<path d="M43.125 13.4084V14.8203H44.5974H46.0698V13.4084V11.9965H44.5974H43.125V13.4084Z" fill="#322841"/>
<path d="M47.0638 12.2435C47.0086 12.367 46.9902 12.9847 47.027 13.6025L47.0822 14.732L48.4994 14.7849L49.8982 14.8379L49.9718 13.6378C50.0086 12.9847 50.0086 12.3317 49.9718 12.2082C49.8614 11.8905 47.1926 11.9082 47.0638 12.2435Z" fill="#322841"/>
<path d="M18.0938 13.6911V14.4854L18.8852 14.4324C19.6582 14.3795 19.6582 14.3795 19.7134 13.6205L19.7686 12.8793H18.9404H18.0938V13.6911Z" fill="#322841"/>
<path d="M20.3763 13.1263C20.3211 13.2675 20.3027 13.6028 20.3395 13.8852C20.3947 14.3441 20.4499 14.3794 21.2229 14.3794H22.0511L22.1064 13.6205L22.1616 12.8792H21.3149C20.7628 12.8792 20.4499 12.9675 20.3763 13.1263Z" fill="#322841"/>
<path d="M18.2226 15.1029C18.149 15.1735 18.0938 15.5265 18.0938 15.8971C18.0938 16.4619 18.1674 16.6031 18.5355 16.6913C19.4373 16.9031 19.6582 16.7266 19.6582 15.8795C19.6582 15.1029 19.6398 15.0853 19.014 15.0323C18.6459 14.997 18.2962 15.0323 18.2226 15.1029Z" fill="#322841"/>
<path d="M20.3764 15.4205C20.3212 15.6675 20.3212 16.0911 20.3764 16.3382C20.4868 16.7441 20.5788 16.7794 21.2782 16.7265L22.0512 16.6735V15.8793V15.0851L21.2782 15.0322C20.5788 14.9792 20.4868 15.0145 20.3764 15.4205Z" fill="#322841"/>
<path d="M43.1985 15.7558C43.1433 15.897 43.1249 16.55 43.1617 17.2207L43.2169 18.4385H44.5973H45.9777V17.0266V15.6146L44.6341 15.5617C43.6219 15.5264 43.2722 15.5793 43.1985 15.7558Z" fill="#322841"/>
<path d="M47.1195 15.6324C46.9354 15.8088 46.9538 18.0326 47.1563 18.315C47.2483 18.4739 47.6716 18.5268 48.5735 18.4915L49.8434 18.4386V17.0266V15.6147L48.5551 15.5618C47.8373 15.5441 47.1931 15.5618 47.1195 15.6324Z" fill="#322841"/>
<path d="M14.7994 26.31C14.1368 26.3806 13.511 26.5571 13.3822 26.6806C13.0693 26.9807 12.6828 28.7456 12.1675 32.2401C11.7994 34.7109 11.7441 35.7346 11.7441 41.1175C11.7441 45.8651 11.7994 47.2947 11.9834 47.6124C12.554 48.5831 16.1062 49.5185 18.5357 49.3596C20.5786 49.2361 20.5602 49.2537 20.8363 45.671C21.094 42.353 21.2412 42 22.2903 42.0176C23.5603 42.0353 24.7382 42.3 25.1063 42.653C25.456 42.9883 25.456 43.0942 25.2536 45.7769C25.1431 47.2947 25.1063 48.7243 25.1615 48.9537C25.3824 49.8008 29.3211 51.001 31.9346 51.001C33.223 51.001 33.3887 50.9657 33.6463 50.5774C33.9224 50.1715 34.5482 47.4888 35.1003 44.3826C35.9102 39.7232 36.2415 29.0985 35.6157 28.3573C34.8243 27.4395 27.1861 26.9983 26.8364 27.8631C26.5419 28.5867 25.9714 31.8694 25.8425 33.599C25.7137 35.311 25.6401 35.5581 25.272 35.8581C24.9407 36.1228 24.6646 36.1581 24.002 36.0876C22.7873 35.9287 22.1431 35.6463 21.959 35.2227C21.8854 35.011 21.9222 33.8991 22.0695 32.7342C22.1983 31.5694 22.3087 29.928 22.3271 29.0809C22.3271 27.2807 22.3087 27.2454 20.2105 26.663C18.6829 26.2394 16.4191 26.0982 14.7994 26.31ZM16.0326 27.2983C16.0694 27.4572 15.9037 27.5278 15.554 27.5278C14.873 27.5278 14.4865 27.9337 14.2288 28.9926C13.9896 29.8751 13.7871 30.1398 13.5847 29.8045C13.3454 29.4515 13.6951 28.0572 14.1736 27.5278C14.5601 27.0689 14.7626 26.9807 15.2963 27.0336C15.6644 27.0689 15.9773 27.1924 16.0326 27.2983ZM13.8607 30.8811C13.8607 31.2517 13.419 31.3753 13.2166 31.0576C13.0693 30.8105 13.2718 30.5281 13.6031 30.5281C13.7503 30.5281 13.8607 30.6869 13.8607 30.8811Z" fill="#322841"/>
</g>
<defs>
<clipPath id="clip0_285_17">
<rect width="50" height="51" fill="white"/>
</clipPath>
</defs>
</svg>
