<svg width="236" height="81" viewBox="0 0 236 81" fill="none" xmlns="http://www.w3.org/2000/svg">
<g clip-path="url(#clip0_282_3)">
<path d="M1.21634 1.53884C1.86901 2.34873 3.26336 4.04951 4.27203 5.26436C5.31037 6.4792 6.43771 7.85602 6.79371 8.30146C7.14972 8.74691 8.51439 10.3667 9.79007 11.946C11.0954 13.4848 12.5788 15.3475 13.1128 16.036C13.6468 16.7244 14.7741 18.0607 15.6048 19.0731C16.4651 20.0449 17.2958 21.0573 17.5035 21.3408C17.6815 21.5837 19.1648 23.3655 20.7965 25.3093C22.3985 27.253 23.8225 29.0348 23.9412 29.2777C24.0302 29.5612 23.3182 31.3025 22.3095 33.2057C21.3008 35.109 20.2328 37.1337 19.9361 37.7411L19.4318 38.875H44.6486H69.8655V19.4375V3.88622e-05H59.4821H49.0987L49.069 12.8369C49.0393 19.9235 49.069 26.4026 49.0987 27.2125C49.1283 28.0629 49.0393 28.7513 48.891 28.7513C48.7723 28.7513 43.907 22.2722 38.1219 14.3757L27.5902 3.88622e-05H13.7951L0 0.0405336L1.21634 1.53884Z" fill="#322841"/>
<path d="M70.9635 0.283502C70.8449 0.404986 70.7559 9.15185 70.7559 19.721V38.875H80.5459H90.336V37.4577C90.336 35.8379 90.7513 35.6354 91.2557 36.9313C92.0567 38.956 91.7303 38.875 102.707 38.794L113.031 38.6725L112.438 37.8626C112.111 37.3767 111.459 36.2833 110.954 35.4329C110.48 34.5421 109.946 33.6107 109.738 33.4082C109.56 33.1652 109.026 32.2744 108.551 31.3835C108.077 30.4926 107.513 29.5207 107.305 29.2372C107.098 28.9133 106.564 28.0224 106.119 27.2125C105.674 26.3621 105.199 25.5117 105.021 25.2688C104.873 25.0258 104.398 24.2159 103.983 23.487C103.567 22.7581 102.855 21.4623 102.351 20.6524C101.876 19.8425 101.135 18.5871 100.719 17.8582C100.304 17.1293 99.8294 16.3194 99.6514 16.0765C99.5031 15.793 97.3077 12.0675 94.8157 7.77503L90.2767 3.88622e-05H80.7239C75.4432 3.88622e-05 71.0525 0.121523 70.9635 0.283502Z" fill="#322841"/>
<path d="M115.167 0.283499C115.048 0.404983 114.959 9.15185 114.959 19.721V38.875H124.749H134.539L134.48 19.5185L134.391 0.202509L124.868 0.0810248C119.646 0.04053 115.285 0.12152 115.167 0.283499Z" fill="#322841"/>
<path d="M137.417 0.283502C137.298 0.404986 137.209 9.15185 137.209 19.721V38.875H145.516H153.822V29.6017C153.822 24.4589 153.911 20.2069 154.06 20.1259C154.267 19.9235 154.772 21.9482 156.196 28.7513C156.552 30.4116 156.997 32.4363 157.204 33.2057C157.442 33.9751 157.768 35.5949 157.976 36.7288L158.332 38.875H165.422C169.872 38.875 172.513 38.713 172.513 38.4701C172.513 38.1056 171.89 35.109 170.377 28.3464C170.05 26.8886 169.546 24.6208 169.249 23.2845C168.953 21.9482 168.359 19.1946 167.914 17.2103C165.956 8.38245 165.304 5.34535 164.888 3.23962C164.651 2.02478 164.295 0.769439 164.147 0.485976C163.909 0.121523 160.853 3.88622e-05 150.707 3.88622e-05C143.498 3.88622e-05 137.506 0.121523 137.417 0.283502Z" fill="#322841"/>
<path d="M185.151 0.323993C184.943 0.769436 184.112 4.21149 183.638 6.4792C183.193 8.58492 181.324 17.2103 180.463 21.0573C179.603 24.9043 178.832 28.3464 178.446 30.1686C178.268 31.0595 177.853 32.8818 177.556 34.2181C177.259 35.5544 176.933 37.1337 176.844 37.7411L176.666 38.875H183.786C189.868 38.875 190.906 38.794 190.906 38.2676C190.906 37.6602 191.944 32.8413 192.419 31.3835C192.538 30.938 192.864 29.4802 193.131 28.1439C194.377 21.7862 194.585 20.8143 194.97 20.0449C195.297 19.397 195.356 20.7333 195.356 29.0753V38.875H203.663H211.97L211.91 19.5185L211.821 0.202509L198.56 0.0810248C191.262 0.04053 185.24 0.162014 185.151 0.323993Z" fill="#322841"/>
<path d="M41.3849 45.9618C38.8039 50.9426 35.0658 58.0697 33.5232 60.9448C32.9298 62.0382 31.9805 63.901 31.3575 65.0753C30.7641 66.2497 29.8741 67.9504 29.3698 68.8818C28.8951 69.8132 28.2721 70.947 28.0348 71.4735C26.8778 73.8222 26.3141 74.9155 24.8604 77.5882C24.0001 79.1675 23.2881 80.5848 23.2881 80.7063C23.2881 80.8683 28.9841 80.9493 35.9558 80.9088L48.5939 80.7873L49.8696 77.9526C50.5816 76.3733 51.353 74.5511 51.5903 73.9032C51.8573 73.2148 52.6583 71.3925 53.3703 69.8537C54.112 68.2744 54.913 66.4521 55.18 65.8042C55.4173 65.1158 55.8623 64.1034 56.1293 63.5365C56.426 62.9291 57.1973 61.2283 57.85 59.73C58.5027 58.2317 59.3333 56.3689 59.6893 55.559C60.0453 54.7087 60.5497 53.4938 60.787 52.8459C61.6474 50.6187 62.3 49.2824 62.5374 49.3228C62.6857 49.3228 65.1184 52.198 67.9664 55.721L73.1284 62.1192V71.5545V80.9897L83.3932 80.9088L93.6579 80.7873L93.6283 61.7547C93.5986 51.2666 93.5986 42.4792 93.5986 42.1958C93.5986 41.8313 88.4069 41.7098 68.5894 41.7098H43.5802L41.3849 45.9618Z" fill="#322841"/>
<path d="M94.9938 41.9933C94.8751 42.1148 94.7861 50.9831 94.7861 61.6333V80.9897H104.576H114.366V61.3498V41.7098H104.784C99.5032 41.7098 95.0828 41.8313 94.9938 41.9933Z" fill="#322841"/>
<path d="M116.739 41.9935C116.739 42.2364 119.617 47.2983 123.147 53.2915C126.648 59.2847 131.691 67.8696 134.332 72.3645L139.138 80.585H148.868H158.57V61.35V42.1149H149.076H139.583V44.1397C139.583 45.233 139.464 46.1644 139.345 46.1644C139.138 46.1644 137.387 43.5323 136.853 42.3984C136.586 41.8315 116.739 41.4265 116.739 41.9935Z" fill="#322841"/>
<path d="M161.239 61.35V80.585H169.546H177.853L177.793 61.4309L177.704 42.3174L169.487 42.1959L161.239 42.1149V61.35Z" fill="#322841"/>
<path d="M182.6 42.3174C182.6 42.4389 182.867 43.5728 183.163 44.8281C183.46 46.1239 184.024 48.5536 184.38 50.2139C185.685 56.3286 186.189 58.5558 186.605 60.3376C186.812 61.35 187.287 63.5367 187.643 65.197C187.999 66.8572 188.444 68.963 188.681 69.8539C189.245 72.1621 190.254 76.8594 190.61 78.8437L190.936 80.585H198.59H206.274L206.63 78.4387C206.808 77.3049 207.075 75.9686 207.223 75.5231C207.46 74.7132 207.905 72.6885 209.448 65.3994C209.893 63.3747 210.427 61.026 210.635 60.1351C210.842 59.2442 211.317 57.1385 211.673 55.4782C212.029 53.8179 212.563 51.3478 212.86 50.0114C213.156 48.6751 213.601 46.6504 213.868 45.5165C214.106 44.4231 214.403 43.1678 214.521 42.8034C214.699 42.1554 214.165 42.1149 207.727 42.1149H200.785L200.311 43.8157C200.073 44.7876 199.628 46.6099 199.361 47.9057C198.976 49.8494 198.798 50.2139 198.471 49.809C198.234 49.566 197.908 48.3511 197.73 47.0958C197.522 45.881 197.196 44.2612 196.958 43.4918L196.543 42.1149H189.571C185.744 42.1149 182.6 42.1959 182.6 42.3174Z" fill="#322841"/>
<path d="M219.387 61.35V80.585H227.693H236V61.35V42.1149H227.693H219.387V61.35Z" fill="#322841"/>
</g>
<defs>
<clipPath id="clip0_282_3">
<rect width="236" height="81" fill="white"/>
</clipPath>
</defs>
</svg>
