<svg width="50" height="51" viewBox="0 0 50 51" fill="none" xmlns="http://www.w3.org/2000/svg">
<g clip-path="url(#clip0_76_19)">
<path d="M43.1627 0.5H6.308C2.83 0.5 0 3.12037 0 6.34074V44.4537C0 47.6747 2.83 50.2944 6.308 50.2944H43.1627C46.6413 50.2944 49.4707 47.6747 49.4707 44.4537V6.34074C49.47 3.12037 46.6413 0.5 43.1627 0.5ZM45.47 44.4537C45.47 45.6321 44.4347 46.5907 43.162 46.5907H6.308C5.03533 46.5907 4 45.6321 4 44.4537V6.34074C4 5.16235 5.03533 4.2037 6.308 4.2037H43.1627C44.4353 4.2037 45.4707 5.16235 45.4707 6.34074L45.47 44.4537Z" fill="#2F2E41"/>
<path d="M33.9419 8.15234H15.5273C14.4426 8.15234 13.5639 8.96654 13.5639 9.97024V20.5486C13.5639 21.553 14.4426 22.3665 15.5273 22.3665H33.9413C35.0259 22.3665 35.9046 21.553 35.9046 20.5486V9.97086C35.9059 8.96716 35.0266 8.15234 33.9419 8.15234ZM31.9059 18.6635H17.5639V11.856H31.9053L31.9059 18.6635Z" fill="#2F2E41"/>
<path d="M33.9419 28.4287H15.5273C14.4426 28.4287 13.5639 29.2429 13.5639 30.2466V40.825C13.5639 41.8293 14.4426 42.6429 15.5273 42.6429H33.9413C35.0259 42.6429 35.9046 41.8293 35.9046 40.825V30.2466C35.9059 29.2429 35.0266 28.4287 33.9419 28.4287ZM31.9059 38.9398H17.5639V32.1324H31.9053L31.9059 38.9398Z" fill="#2F2E41"/>
<path d="M10.3887 8.61621H6.67934V12.32H10.3887V8.61621Z" fill="#2F2E41"/>
<path d="M10.3887 16.123H6.67934V19.8268H10.3887V16.123Z" fill="#2F2E41"/>
<path d="M10.3887 23.6299H6.67934V27.3336H10.3887V23.6299Z" fill="#2F2E41"/>
<path d="M10.3887 31.1357H6.67934V34.8394H10.3887V31.1357Z" fill="#2F2E41"/>
<path d="M10.3887 38.6426H6.67934V42.3463H10.3887V38.6426Z" fill="#2F2E41"/>
<path d="M42.816 8.61621H39.1067V12.32H42.816V8.61621Z" fill="#2F2E41"/>
<path d="M42.816 16.123H39.1067V19.8268H42.816V16.123Z" fill="#2F2E41"/>
<path d="M42.816 23.6299H39.1067V27.3336H42.816V23.6299Z" fill="#2F2E41"/>
<path d="M42.816 31.1357H39.1067V34.8394H42.816V31.1357Z" fill="#2F2E41"/>
<path d="M42.816 38.6426H39.1067V42.3463H42.816V38.6426Z" fill="#2F2E41"/>
</g>
<defs>
<clipPath id="clip0_76_19">
<rect width="50" height="50" fill="white" transform="translate(0 0.5)"/>
</clipPath>
</defs>
</svg>
