<svg width="401" height="522" viewBox="0 0 401 522" fill="none" xmlns="http://www.w3.org/2000/svg">
<g clip-path="url(#clip0_66_159)">
<path d="M398.343 300.612C397.103 302.768 395.425 304.615 393.426 306.022C391.428 307.429 389.157 308.363 386.774 308.758C384.392 309.152 381.955 308.997 379.636 308.305C377.317 307.612 375.172 306.398 373.352 304.749L322.481 335.139L324.377 303.458L372.394 279.456C375.257 276.455 379.078 274.652 383.132 274.389C387.186 274.126 391.191 275.421 394.39 278.029C397.588 280.636 399.757 284.376 400.486 288.538C401.214 292.7 400.452 296.996 398.343 300.612Z" fill="#FFB8B8"/>
<path d="M251.067 422.356C266.157 444.355 265.617 481.161 261.407 521.443H190.061L186.959 513.904L182.823 521.443H115.613C115.613 521.443 120.783 419.125 130.089 415.894C139.395 412.663 251.067 422.356 251.067 422.356Z" fill="#2F2E41"/>
<path d="M190.061 192.509C170.074 192.509 153.871 175.632 153.871 154.813C153.871 133.994 170.074 117.117 190.061 117.117C210.048 117.117 226.251 133.994 226.251 154.813C226.251 175.632 210.048 192.509 190.061 192.509Z" fill="#FFB8B8"/>
<path d="M163.904 202.29L156.827 216.419L107.877 239.148L120.744 368.85L126.16 382.281L123.234 393.945L130.288 402.553C123.207 409.227 122.308 416.213 126.16 423.439L148.701 428.818C148.701 428.818 274.038 440.427 263.475 420.202C251.933 398.103 248.994 332.838 274.473 297.962C296.104 268.354 279.497 229.933 279.497 229.933L228.188 213.961L209.316 202.29L163.904 202.29Z" fill="#103D80"/>
<path d="M173.994 99.5945C173.824 99.2197 173.551 98.9064 173.208 98.6948C172.866 98.4833 172.471 98.3831 172.074 98.4072C188.642 97.3749 206.094 99.3863 219.955 108.897C223.313 111.201 226.479 113.949 230.133 115.62C230.306 115.701 230.455 115.827 230.567 115.986C230.679 116.144 230.75 116.33 230.772 116.526C230.795 116.721 230.768 116.92 230.696 117.102C230.623 117.283 230.506 117.442 230.357 117.563L229.956 117.891C229.797 118.021 229.676 118.193 229.605 118.389C229.534 118.585 229.516 118.798 229.553 119.004C229.59 119.21 229.68 119.401 229.815 119.557C229.949 119.714 230.121 119.829 230.314 119.89C230.515 119.953 230.694 120.076 230.83 120.242C230.966 120.408 231.054 120.611 231.083 120.827C231.112 121.044 231.081 121.264 230.994 121.463C230.907 121.662 230.767 121.83 230.59 121.949L227.515 124.02C227.36 124.122 227.232 124.263 227.143 124.431C227.054 124.598 227.007 124.786 227.006 124.977C227.005 125.168 227.05 125.356 227.137 125.525C227.224 125.693 227.351 125.836 227.505 125.94C227.765 126.107 228.039 126.252 228.322 126.372C228.499 126.441 228.656 126.556 228.777 126.707C228.898 126.857 228.98 127.037 229.015 127.23C229.05 127.424 229.037 127.623 228.977 127.809C228.916 127.995 228.811 128.162 228.67 128.293C227.338 129.528 226.317 131.084 225.695 132.825C224.669 135.601 224.485 138.625 224.312 141.594C223.252 137.31 218.764 134.788 214.523 134.532C210.283 134.275 206.148 135.733 202.021 136.78C193.033 139.055 183.698 139.429 174.569 137.88C177.669 144.36 175.054 152.09 172.422 158.791L163.904 154.988C152.206 148.11 160.355 177.206 164.728 181.201C155.798 184.425 132.426 148.634 139.945 135.057C143.856 127.995 141.079 118.887 148.769 112.188C152.538 108.056 160.062 109.893 163.904 106.458C165.417 105.106 163.112 101.49 165.19 100.701C165.88 100.44 173.88 99.3306 173.994 99.5945Z" fill="#2F2E41"/>
<path d="M235.295 217.61C241.936 248.319 258.968 320.021 276.248 335.016C277.344 336.094 278.658 336.902 280.093 337.381C340.832 352.794 360.294 313.479 360.294 313.479C360.294 313.479 344.017 305.216 343.604 289.066L310.778 299.675L282.163 232.599L277.952 228.508L277.929 228.484L235.295 217.61Z" fill="#103D80"/>
<path d="M105.789 501.194C104.049 499.452 102.698 497.335 101.829 494.99C100.961 492.646 100.596 490.132 100.761 487.625C100.927 485.118 101.618 482.679 102.786 480.48C103.953 478.281 105.57 476.376 107.522 474.898L90.494 416.445L119.71 425.473L131.4 479.597C133.566 483.176 134.396 487.459 133.733 491.633C133.071 495.807 130.961 499.583 127.804 502.245C124.647 504.907 120.662 506.27 116.604 506.077C112.547 505.883 108.699 504.146 105.789 501.194Z" fill="#FFB8B8"/>
<path d="M121.373 235.878L107.877 239.148C107.877 239.148 52.0953 352.197 65.5372 373.738C78.9792 395.279 95.4467 466.594 95.4467 466.594C95.4467 466.594 119.803 461.551 129.109 448.626L112.067 364.045L129.645 292.961L121.373 235.878Z" fill="#103D80"/>
<path d="M377.412 403.753L376.927 221.68C376.913 217.994 375.497 214.465 372.988 211.867C370.479 209.268 367.084 207.812 363.546 207.818L231.534 208.2C227.996 208.214 224.609 209.69 222.114 212.303C219.619 214.916 218.221 218.453 218.227 222.138L218.712 404.211C218.725 407.896 220.142 411.425 222.651 414.024C225.159 416.622 228.555 418.078 232.093 418.072L364.104 417.691C367.642 417.677 371.03 416.201 373.525 413.588C376.02 410.975 377.417 407.438 377.412 403.753Z" fill="#CCCCCC"/>
<path d="M367.139 348.788L366.828 231.735C366.815 228.284 365.488 224.979 363.139 222.545C360.789 220.111 357.609 218.748 354.296 218.753L240.843 219.081C237.53 219.094 234.356 220.476 232.02 222.923C229.683 225.371 228.374 228.683 228.38 232.135L228.811 394.155C228.824 397.606 230.151 400.911 232.5 403.345C234.85 405.779 238.03 407.142 241.344 407.136L311.625 406.933C326.384 406.874 340.518 400.718 350.925 389.817C361.332 378.917 367.163 364.161 367.139 348.788Z" fill="#FBFAFA"/>
<path d="M253.843 270.17H342.307C343.714 270.17 345.065 269.588 346.06 268.551C347.055 267.514 347.615 266.108 347.615 264.642C347.615 263.175 347.055 261.769 346.06 260.732C345.065 259.695 343.714 259.113 342.307 259.113H253.843C252.435 259.113 251.085 259.695 250.09 260.732C249.094 261.769 248.535 263.175 248.535 264.642C248.535 266.108 249.094 267.514 250.09 268.551C251.085 269.588 252.435 270.17 253.843 270.17Z" fill="#1F4CC0"/>
<path d="M322.845 244.677H342.307C343.713 244.675 345.062 244.092 346.056 243.055C347.05 242.018 347.609 240.613 347.609 239.148C347.609 237.683 347.05 236.277 346.056 235.241C345.062 234.204 343.713 233.621 342.307 233.619H322.845C321.438 233.621 320.089 234.204 319.095 235.241C318.101 236.277 317.543 237.683 317.543 239.148C317.543 240.613 318.101 242.018 319.095 243.055C320.089 244.092 321.438 244.675 322.845 244.677Z" fill="#1F4CC0"/>
<path d="M253.843 295.664H342.307C343.713 295.662 345.062 295.079 346.056 294.042C347.05 293.006 347.609 291.6 347.609 290.135C347.609 288.67 347.05 287.265 346.056 286.228C345.062 285.191 343.713 284.608 342.307 284.606H253.843C252.436 284.608 251.087 285.191 250.093 286.228C249.099 287.265 248.541 288.67 248.541 290.135C248.541 291.6 249.099 293.006 250.093 294.042C251.087 295.079 252.436 295.662 253.843 295.664Z" fill="#1F4CC0"/>
<path d="M253.843 321.158H342.307C343.713 321.156 345.062 320.573 346.056 319.536C347.05 318.499 347.609 317.094 347.609 315.629C347.609 314.164 347.05 312.758 346.056 311.722C345.062 310.685 343.713 310.102 342.307 310.1H253.843C252.436 310.102 251.087 310.685 250.093 311.722C249.099 312.758 248.541 314.164 248.541 315.629C248.541 317.094 249.099 318.499 250.093 319.536C251.087 320.573 252.436 321.156 253.843 321.158Z" fill="#1F4CC0"/>
<path d="M261.001 388.332C249.337 388.332 239.881 378.483 239.881 366.333C239.881 354.184 249.337 344.334 261.001 344.334C272.665 344.334 282.121 354.184 282.121 366.333C282.121 378.483 272.665 388.332 261.001 388.332Z" fill="#1F4CC0"/>
<path d="M257.855 377C257.457 377 257.065 376.911 256.708 376.741C256.352 376.57 256.043 376.322 255.804 376.017L249.515 367.98C249.312 367.722 249.165 367.428 249.081 367.116C248.997 366.803 248.978 366.477 249.026 366.157C249.073 365.837 249.186 365.53 249.357 365.252C249.529 364.974 249.756 364.731 250.026 364.537C250.295 364.343 250.602 364.202 250.929 364.122C251.255 364.042 251.595 364.025 251.929 364.071C252.262 364.117 252.583 364.225 252.873 364.39C253.163 364.555 253.416 364.773 253.618 365.032L257.732 370.289L268.3 355.097C268.486 354.828 268.726 354.597 269.006 354.417C269.286 354.237 269.6 354.112 269.931 354.048C270.261 353.984 270.602 353.984 270.932 354.047C271.263 354.109 271.578 354.234 271.858 354.413C272.139 354.592 272.379 354.822 272.567 355.091C272.754 355.359 272.885 355.661 272.951 355.977C273.016 356.294 273.016 356.62 272.951 356.937C272.885 357.254 272.755 357.555 272.567 357.824L259.989 375.906C259.762 376.233 259.455 376.503 259.097 376.693C258.738 376.883 258.337 376.988 257.927 376.999C257.903 377 257.879 377 257.855 377Z" fill="white"/>
<path d="M306.036 165.431C300.499 165.431 296.011 160.756 296.011 154.988C296.011 149.22 300.499 144.545 306.036 144.545C311.574 144.545 316.062 149.22 316.062 154.988C316.062 160.756 311.574 165.431 306.036 165.431Z" fill="#1F4CC0"/>
<path d="M342.602 465.826C337.064 465.826 332.576 461.151 332.576 455.383C332.576 449.616 337.064 444.94 342.602 444.94C348.139 444.94 352.628 449.616 352.628 455.383C352.628 461.151 348.139 465.826 342.602 465.826Z" fill="#1F4CC0"/>
<path d="M112.006 205.975C106.468 205.975 101.98 201.3 101.98 195.532C101.98 189.764 106.468 185.089 112.006 185.089C117.543 185.089 122.031 189.764 122.031 195.532C122.031 201.3 117.543 205.975 112.006 205.975Z" fill="#1F4CC0"/>
</g>
<defs>
<clipPath id="clip0_66_159">
<rect width="400.755" height="521.443" fill="white"/>
</clipPath>
</defs>
</svg>
