<?xml version="1.0" encoding="UTF-8" standalone="no"?>
<svg
   data-name="Layer 1"
   width="571.9401"
   height="689.03807"
   viewBox="0 0 571.9401 689.03807"
   version="1.1"
   id="svg40"
   sodipodi:docname="undraw_certificate_re_yadi.svg"
   inkscape:version="1.2.2 (732a01da63, 2022-12-09)"
   xmlns:inkscape="http://www.inkscape.org/namespaces/inkscape"
   xmlns:sodipodi="http://sodipodi.sourceforge.net/DTD/sodipodi-0.dtd"
   xmlns="http://www.w3.org/2000/svg"
   xmlns:svg="http://www.w3.org/2000/svg">
  <defs
     id="defs44" />
  <sodipodi:namedview
     id="namedview42"
     pagecolor="#505050"
     bordercolor="#eeeeee"
     borderopacity="1"
     inkscape:showpageshadow="0"
     inkscape:pageopacity="0"
     inkscape:pagecheckerboard="0"
     inkscape:deskcolor="#505050"
     showgrid="false"
     inkscape:zoom="0.83534558"
     inkscape:cx="341.17616"
     inkscape:cy="374.09667"
     inkscape:window-width="1920"
     inkscape:window-height="1001"
     inkscape:window-x="-9"
     inkscape:window-y="-9"
     inkscape:window-maximized="1"
     inkscape:current-layer="svg40" />
  <path
     d="m 166.86854,416.99425 a 19.606394,21.175514 0 0 0 29.69146,5.09623 l 60.4394,37.43854 -2.25255,-39.0284 -57.04896,-29.56883 a 19.712648,21.290269 0 0 0 -30.82935,26.06246 z"
     fill="#ffb8b8"
     id="path2"
     style="stroke-width:0.728191" />
  <path
     d="m 341.84647,566.97188 c -17.92826,27.10119 -17.28687,72.44212 -12.2849,122.06616 h 84.76574 l 3.68546,-9.28765 4.91396,9.28765 h 79.85183 c 0,0 -6.14243,-126.04664 -17.19886,-130.02707 -11.05644,-3.98043 -143.73323,7.96091 -143.73323,7.96091 z"
     fill="#2f2e41"
     id="path4"
     style="stroke-width:0.728191" />
  <ellipse
     cx="414.32736"
     cy="237.38335"
     fill="#ffb8b8"
     id="circle6"
     rx="42.997116"
     ry="46.438217"
     style="stroke-width:0.728191" />
  <path
     d="m 445.40404,295.86991 8.4083,17.40569 58.15745,28.00046 -15.28726,159.78108 -6.43419,16.54613 3.47636,14.36892 -8.3812,10.60446 c 8.41296,8.22141 9.48153,16.82786 4.90484,25.73015 l -26.78145,6.62591 c 0,0 -148.91209,14.30132 -136.36233,-10.61445 13.71234,-27.22388 17.20418,-107.62399 -13.06715,-150.58798 -25.69959,-36.47531 -5.96902,-83.80578 -5.96902,-83.80578 l 60.96022,-19.67599 22.42215,-14.37862 z"
     fill="#3f3d56"
     id="path8"
     style="stroke-width:0.728191" />
  <path
     d="m 433.41629,169.35867 a 2.3714924,2.5612851 0 0 1 2.28199,-1.46262 c -19.68484,-1.27173 -40.41916,1.20621 -56.88756,12.92206 -3.98975,2.83837 -7.75129,6.2239 -12.09287,8.2829 a 1.3026636,1.4069171 0 0 0 -0.266,2.39366 l 0.47683,0.40387 a 1.3075335,1.4121767 0 0 1 -0.42561,2.46203 v 0 a 1.3075335,1.4121767 0 0 0 -0.32848,2.53684 l 3.6543,2.55086 a 1.3017318,1.4059106 0 0 1 0.012,2.36547 6.4960744,7.0159614 0 0 1 -0.97175,0.53215 1.3045275,1.4089301 0 0 0 -0.41341,2.36682 12.988814,14.028321 0 0 1 3.53561,5.58237 c 1.218,3.42042 1.43679,7.14555 1.64255,10.80345 1.25883,-5.27793 6.59212,-8.38478 11.62996,-8.70047 5.03786,-0.3157 9.95117,1.47957 14.85405,2.77011 a 82.171318,88.747567 0 0 0 32.61581,1.35511 c -3.68316,7.98297 -0.57628,17.50497 2.55019,25.76027 l 10.12017,-4.68484 c 13.89876,-8.47347 4.21737,27.37063 -0.97873,32.2914 10.60952,3.97257 38.37864,-40.11916 29.44537,-56.84422 -4.64698,-8.70013 -1.34834,-19.92118 -10.48437,-28.17262 -4.47765,-5.0909 -13.41751,-2.82819 -17.98227,-7.05933 -1.79663,-1.6653 0.94181,-6.1206 -1.5272,-7.09155 -0.82014,-0.3225 -10.32495,-1.68875 -10.46057,-1.36372 z"
     fill="#2f2e41"
     id="path10"
     style="stroke-width:0.728191" />
  <path
     d="m 360.58526,314.74369 c -7.88979,37.83089 -28.12577,126.16098 -48.65605,144.6338 a 11.976124,12.934585 0 0 1 -4.56852,2.91346 c -72.16428,18.9874 -95.28712,-29.44582 -95.28712,-29.44582 0,0 19.33911,-10.17855 19.8296,-30.07401 l 39.00051,13.06941 33.99758,-82.63169 5.00295,-5.04007 0.0281,-0.0302 z"
     fill="#3f3d56"
     id="path12"
     style="stroke-width:0.728191" />
  <path
     d="m 514.45123,664.0933 a 19.606416,21.175536 0 0 0 -2.05884,-32.39389 l 20.23031,-72.00878 -34.7113,11.12168 -13.88941,66.6757 a 19.712648,21.290269 0 0 0 30.42925,26.60529 z"
     fill="#ffb8b8"
     id="path14"
     style="stroke-width:0.728191" />
  <path
     d="m 495.93544,337.24761 16.03435,4.02845 c 0,0 66.27438,139.26664 50.30405,165.80277 -15.97034,26.53611 -35.53533,114.39028 -35.53533,114.39028 0,0 -28.93717,-6.21308 -39.99363,-22.13474 l 20.2469,-104.19671 -20.88434,-87.56924 z"
     fill="#3f3d56"
     id="path16"
     style="stroke-width:0.728191" />
  <path
     d="m 191.73661,544.05442 0.57577,-224.29779 a 15.872365,17.142645 0 0 1 15.89832,-17.07574 l 156.84239,0.46964 a 15.872344,17.142622 0 0 1 15.81031,17.17067 l -0.57577,224.29779 a 15.872344,17.142622 0 0 1 -15.89823,17.07574 l -156.84239,-0.46964 a 15.872357,17.142638 0 0 1 -15.8104,-17.17067 z"
     fill="#e6e6e6"
     id="path18"
     style="stroke-width:0.728191" />
  <path
     d="m 203.9413,476.34312 0.37016,-144.19898 a 14.864644,16.054275 0 0 1 14.88924,-15.99192 l 134.79285,0.40361 a 14.865288,16.054971 0 0 1 14.80767,16.08086 l -0.51237,199.59451 a 14.865302,16.054986 0 0 1 -14.89001,15.99192 l -83.50136,-0.25001 A 66.214205,71.513391 0 0 1 203.9413,476.34312 Z"
     fill="#ffffff"
     id="path20"
     style="stroke-width:0.728191" />
  <path
     d="M 338.5485,379.4929 H 233.44469 a 6.3062287,6.8109223 0 0 1 0,-13.62184 H 338.5485 a 6.3062287,6.8109223 0 0 1 0,13.62184 z"
     fill="#6c63ff"
     id="path22"
     style="stroke-width:0.728191" />
  <path
     d="m 256.56752,348.08698 h -23.12283 a 6.3062287,6.8109223 0 0 1 0,-13.62184 h 23.12283 a 6.3062287,6.8109223 0 0 1 0,13.62184 z"
     fill="#6c63ff"
     id="path24"
     style="stroke-width:0.728191" />
  <path
     d="M 338.5485,410.89882 H 233.44469 a 6.3062287,6.8109223 0 0 1 0,-13.62184 H 338.5485 a 6.3062287,6.8109223 0 0 1 0,13.62184 z"
     fill="#6c63ff"
     id="path26"
     style="stroke-width:0.728191" />
  <path
     d="M 338.5485,442.30474 H 233.44469 a 6.3062287,6.8109223 0 0 1 0,-13.62184 H 338.5485 a 6.3062287,6.8109223 0 0 1 0,13.62184 z"
     fill="#6c63ff"
     id="path28"
     style="stroke-width:0.728191" />
  <ellipse
     cx="330.04413"
     cy="497.95731"
     fill="#6c63ff"
     id="circle30"
     rx="25.092497"
     ry="27.100676"
     style="stroke-width:0.728191" />
  <path
     d="m 326.621,512.06194 a 2.7903731,3.0136894 0 0 1 -2.23273,-1.20608 l -6.84562,-9.85813 a 2.7911309,3.0145077 0 1 1 4.46592,-3.61725 l 4.47863,6.44893 11.50279,-18.63483 a 2.7912491,3.0146354 0 1 1 4.6449,3.34445 l -13.69122,22.18043 a 2.792328,3.0158007 0 0 1 -2.24501,1.3415 c -0.0259,4.9e-4 -0.0518,9.5e-4 -0.0777,9.5e-4 z"
     fill="#ffffff"
     id="path32"
     style="stroke-width:0.728191" />
  <ellipse
     cx="276.53726"
     cy="237.59868"
     fill="#f2f2f2"
     id="circle34"
     rx="11.911765"
     ry="12.865075"
     style="stroke-width:0.728191" />
  <ellipse
     cx="233.09433"
     cy="607.65881"
     fill="#f2f2f2"
     id="circle36"
     rx="11.911765"
     ry="12.865075"
     style="stroke-width:0.728191" />
  <ellipse
     cx="507.06494"
     cy="287.54547"
     fill="#f2f2f2"
     id="circle38"
     rx="11.911765"
     ry="12.865075"
     style="stroke-width:0.728191" />
</svg>
