<svg width="50" height="50" viewBox="0 0 50 50" fill="none" xmlns="http://www.w3.org/2000/svg">
<g clip-path="url(#clip0_85_46)">
<path d="M40.5259 26.5446C38.9291 22.0737 35.3098 19.1995 31.0518 19.1995C30.9453 19.1995 30.9453 19.1995 30.839 19.1995C30.3067 14.5157 27.0067 10.577 22.5358 9.29959C19.6616 8.5544 16.681 8.98024 14.1261 10.4705C11.4648 12.0673 9.54873 14.6221 8.80364 17.7091C7.52623 23.0316 9.97457 28.4606 14.4455 30.9091C13.0616 32.9317 12.21 35.4865 12.21 38.2542C12.21 44.2154 16.0423 49.2186 21.2584 49.8573C21.6842 49.9638 40.2067 49.9638 40.6324 49.8573C45.9549 49.4315 50.0001 44.3219 50.0001 38.2542C50 32.0801 45.8484 26.9705 40.5259 26.5446ZM12.8486 18.6673C13.3809 16.6447 14.5519 14.9416 16.255 13.9835C17.8518 13.0254 19.6614 12.8126 21.4712 13.2383C24.4518 14.0899 26.6873 16.964 26.7937 20.3705C24.4517 21.648 22.6421 23.8834 21.684 26.5447C20.3001 26.6512 19.0227 27.0769 17.8518 27.8221C14.0197 26.7576 11.8906 22.7124 12.8486 18.6673ZM40.1001 45.8122C39.9936 45.8122 21.897 45.8122 21.7905 45.8122C18.8098 45.4929 16.3615 42.1929 16.3615 38.3607C16.3615 34.2091 19.0228 30.8027 22.3227 30.8027C22.5356 30.8027 22.7486 30.8027 22.7486 30.8027C23.9195 31.0156 24.8775 30.2705 25.0905 29.2059C25.6227 26.5446 27.326 24.4156 29.455 23.7769C29.9872 23.6705 30.413 23.5641 30.9452 23.5641C33.7129 23.5641 36.1614 25.906 36.8001 29.2059C37.0129 30.2705 38.0775 30.9092 39.142 30.8027C39.3549 30.8027 39.5679 30.8027 39.7807 30.8027C43.0807 30.8027 45.7419 34.2091 45.7419 38.3607C45.7419 42.2994 43.2936 45.5993 40.1001 45.8122Z" fill="black"/>
<path d="M24.8777 0.144428C23.7067 -0.174924 22.6422 0.46378 22.3228 1.63471L21.4713 4.82823C21.1519 5.99915 21.7906 7.0637 22.9615 7.38305C23.1744 7.48953 23.2809 7.48953 23.4938 7.48953C24.4518 7.48953 25.3034 6.85083 25.5164 5.89277L26.3679 2.69925C26.6873 1.52822 26.0486 0.46378 24.8777 0.144428Z" fill="black"/>
<path d="M37.2259 9.83135C36.5872 8.87329 35.3098 8.55394 34.3517 9.19264L31.584 10.8959C30.626 11.5346 30.3066 12.812 30.9453 13.7701C31.3712 14.4088 32.0099 14.7281 32.755 14.7281C33.0743 14.7281 33.5001 14.6216 33.8195 14.4088L36.5872 12.7055C37.5452 12.0668 37.8646 10.7895 37.2259 9.83135Z" fill="black"/>
<path d="M8.4842 27.5022C7.8455 26.5442 6.56809 26.2248 5.61003 26.8635L2.84224 28.5668C1.88419 29.2055 1.56483 30.4829 2.20354 31.441C2.62937 32.0797 3.26808 32.399 4.01317 32.399C4.439 32.399 4.75836 32.399 5.07771 32.0797L7.8454 30.3764C8.80355 29.7377 9.12291 28.4604 8.4842 27.5022Z" fill="black"/>
<path d="M13.9132 5.99977L12.3164 3.12559C11.6777 2.16754 10.4003 1.84818 9.44226 2.38041C8.37772 2.91263 8.05836 4.19004 8.59069 5.25458L10.2938 8.12875C10.7197 8.76745 11.3584 9.19329 12.1035 9.19329C12.4228 9.19329 12.7422 9.0868 13.168 8.87394C14.1262 8.23523 14.4455 6.95782 13.9132 5.99977Z" fill="black"/>
<path d="M5.71651 14.7289L2.62947 13.8773C1.56493 13.558 0.394002 14.3032 0.07465 15.3676C-0.244702 16.4321 0.500486 17.6031 1.56493 17.9224L4.65197 18.6676C4.86484 18.774 4.97132 18.774 5.18419 18.774C6.14224 18.774 6.88743 18.1353 7.20679 17.2837C7.52614 16.2193 6.78095 15.0482 5.71651 14.7289Z" fill="black"/>
</g>
<defs>
<clipPath id="clip0_85_46">
<rect width="50" height="50" fill="white"/>
</clipPath>
</defs>
</svg>
