<svg width="50" height="51" viewBox="0 0 50 51" fill="none" xmlns="http://www.w3.org/2000/svg">
<g clip-path="url(#clip0_76_17)">
<path d="M43.5933 4.38667C42.3028 1.45296 35.7706 0.00520685 34.5075 0.653522C33.7476 1.04397 33.0631 1.5715 32.3381 2.12993C30.6028 3.46589 28.6365 4.98105 24.9552 4.98105C21.2758 4.98105 19.3087 3.46645 17.5734 2.13049C16.8484 1.57206 16.1631 1.04397 15.4028 0.653522C14.1381 0.00295969 7.60752 1.4524 6.31744 4.38667C1.04959 16.3603 -1.95716 43.74 1.44284 48.7754C2.14879 49.8204 3.00713 50.3642 3.94522 50.3642C4.05792 50.3642 4.17102 50.3569 4.28649 50.3406C6.13967 50.0861 8.12697 47.8063 9.88768 43.9097L10.3742 42.7726C13.5012 35.4367 13.7575 34.8372 24.9552 34.8372C36.1548 34.8372 36.4095 35.4367 39.5373 42.7732L40.0266 43.9204C41.7829 47.8058 43.771 50.0855 45.6238 50.34C46.6972 50.4883 47.6778 49.9462 48.4679 48.7754C51.8683 43.74 48.8603 16.3603 43.5933 4.38667ZM35.5191 6.09229H37.871C38.0861 6.09229 38.2607 6.3451 38.2607 6.65072L38.2615 9.95746C38.2615 10.1462 38.1937 10.3232 38.0814 10.4249L36.9052 11.4906C36.8417 11.549 36.7679 11.5788 36.6952 11.5788C36.6214 11.5788 36.5488 11.5496 36.4849 11.4917L35.2956 10.4266C35.1837 10.3249 35.1036 10.1496 35.1036 9.96083V6.65634H35.1032C35.1032 6.35128 35.3028 6.09229 35.5191 6.09229ZM28.3333 12.49C28.6258 12.0754 29.1488 12.0754 29.4417 12.49C29.5853 12.6945 29.6679 12.9816 29.6679 13.2698C29.6679 13.5625 29.5853 13.8496 29.4417 14.0541C29.2929 14.2586 29.0937 14.3749 28.8877 14.3749C28.6841 14.3749 28.4818 14.2586 28.3373 14.0541C28.1885 13.844 28.1071 13.5625 28.1071 13.2698C28.1068 12.9816 28.1881 12.6945 28.3333 12.49ZM20.5032 12.49C20.7956 12.0754 21.3151 12.0754 21.6075 12.49C21.7556 12.6945 21.8381 12.9816 21.8381 13.2698C21.8381 13.5625 21.7556 13.844 21.6075 14.0479C21.4631 14.2586 21.2599 14.3749 21.0571 14.3749C20.8504 14.3749 20.6508 14.2586 20.5032 14.0479C20.3583 13.844 20.277 13.5625 20.277 13.2698C20.277 12.9816 20.3583 12.6945 20.5032 12.49ZM12.0917 17.691C10.3702 17.691 8.96943 15.7079 8.96943 13.2708C8.96943 10.8326 10.3702 8.85002 12.0917 8.85002C13.8139 8.85002 15.2143 10.832 15.2143 13.2708C15.2143 15.7074 13.8139 17.691 12.0917 17.691ZM23.3944 25.426C23.3944 25.7305 23.2369 25.985 23.021 25.985H20.6623V29.3333C20.6623 29.6389 20.5246 29.853 20.3087 29.853H17.9472C17.7317 29.853 17.5401 29.6389 17.5401 29.3333V25.985H15.2171C15.0012 25.985 14.8083 25.731 14.8083 25.426V22.1018C14.8083 21.7973 15.0012 21.5642 15.2171 21.5642H17.5401V18.2423C17.5401 17.9378 17.7317 17.6956 17.9472 17.6956H20.3087C20.5246 17.6956 20.6623 17.9372 20.6623 18.2423V21.5642H23.021C23.2369 21.5642 23.3944 21.7968 23.3944 22.1018V25.426ZM24.9552 16.0513C23.8722 16.0513 22.9905 14.8035 22.9905 13.2704C22.9905 11.7372 23.8722 10.4895 24.9552 10.4895C26.0393 10.4895 26.9198 11.7372 26.9198 13.2704C26.9198 14.8041 26.0393 16.0513 24.9552 16.0513ZM30.7857 28.2659C29.0639 28.2659 27.6631 26.2833 27.6631 23.8451C27.6631 21.4069 29.0639 19.4243 30.7857 19.4243C32.5071 19.4243 33.9079 21.4069 33.9079 23.8451C33.9079 26.2833 32.5071 28.2659 30.7857 28.2659ZM34.356 15.4861H32.0222C31.8067 15.4861 31.5905 15.2412 31.5905 14.9361V11.6058C31.5905 11.3002 31.8067 11.0653 32.0222 11.0653H34.356C34.4897 11.0653 34.6123 11.1552 34.6853 11.3136L35.4377 12.9754C35.5206 13.1575 35.5206 13.3884 35.4377 13.5709L34.6853 15.2333C34.6127 15.3912 34.4897 15.4861 34.356 15.4861ZM37.8714 20.4591H35.5191C35.3028 20.4591 35.1032 20.19 35.1032 19.8855V16.5816C35.1032 16.3928 35.1833 16.2176 35.2952 16.1159L36.4782 15.0501C36.6056 14.9344 36.7738 14.9344 36.9016 15.0501L38.0619 16.1159C38.1734 16.217 38.2254 16.3923 38.2254 16.5816V19.8855H38.2258C38.2258 20.1899 38.0865 20.4591 37.8714 20.4591ZM41.7385 14.9361C41.7385 15.2412 41.5833 15.4861 41.3671 15.4861H39.0337C38.8996 15.4861 38.7762 15.3917 38.704 15.2327L37.9516 13.5681C37.8698 13.3861 37.8698 13.1541 37.9516 12.9721L38.704 11.3136C38.7762 11.1552 38.8996 11.0659 39.0337 11.0659H41.3671C41.5833 11.0659 41.7385 11.3007 41.7385 11.6063V14.9361Z" fill="#2F2E41"/>
</g>
<defs>
<clipPath id="clip0_76_17">
<rect width="50" height="50" fill="white" transform="translate(0 0.5)"/>
</clipPath>
</defs>
</svg>
