<svg width="512" height="513" viewBox="0 0 512 513" fill="none" xmlns="http://www.w3.org/2000/svg">
<g clip-path="url(#clip0_76_33)">
<path d="M501.333 33.471C501.28 15.246 486.492 0.5 468.267 0.5H43.733C25.509 0.5 10.72 15.246 10.667 33.471V379.167C10.667 396.788 24.79 416.5 43.734 416.5H213.334V491.167H160C154.109 491.167 149.333 495.943 149.333 501.834C149.333 507.725 154.109 512.5 160 512.5H288C288.181 512.5 288.32 512.404 288.501 512.404C288.842 512.404 289.152 512.5 289.493 512.5H457.173C481.55 512.471 501.304 492.717 501.333 468.34V183.327C501.31 180.609 501.035 177.899 500.512 175.231C501.049 173.943 501.328 172.562 501.333 171.167V33.471ZM234.667 491.167V416.5H245.334V468.34C245.37 476.407 247.637 484.307 251.883 491.167H234.667ZM245.333 183.327V288.5H74.667V64.5H437.334V139.167H289.494C265.117 139.196 245.363 158.95 245.333 183.327ZM480 468.34C479.988 480.942 469.775 491.155 457.173 491.167H289.493C276.891 491.155 266.678 480.942 266.666 468.34V448.5H480V468.34ZM480 427.167H266.667V213.833H480V427.167ZM480 192.5H266.667V183.327C266.679 170.725 276.892 160.512 289.494 160.5H457.174C469.776 160.512 479.989 170.725 480.001 183.327V192.5H480ZM480 145.716C473.56 141.777 466.211 139.572 458.667 139.316C458.667 139.316 458.667 139.22 458.667 139.167V53.833C458.667 47.942 453.891 43.166 448 43.166H64C58.109 43.166 53.333 47.942 53.333 53.833V299.166C53.333 305.057 58.109 309.833 64 309.833H245.333V330.1C233.645 332.845 226.396 344.546 229.141 356.234C231.028 364.267 237.3 370.539 245.333 372.426V395.167H43.733C38.4 395.167 32 386.495 32 379.167V33.471C32.018 27.026 37.256 21.816 43.701 21.834C43.712 21.834 43.722 21.834 43.733 21.834H468.266C474.711 21.799 479.964 26.994 479.999 33.439C479.999 33.45 479.999 33.46 479.999 33.471V145.716H480Z" fill="#2F2E41"/>
</g>
<defs>
<clipPath id="clip0_76_33">
<rect width="512" height="512" fill="white" transform="translate(0 0.5)"/>
</clipPath>
</defs>
</svg>
