<svg width="50" height="51" viewBox="0 0 50 51" fill="none" xmlns="http://www.w3.org/2000/svg">
<g clip-path="url(#clip0_76_35)">
<path d="M25.3977 0.5C16.2191 0.5 8.75165 11.7021 8.75165 25.4713C8.75165 39.2406 16.2191 50.4427 25.3977 50.4427C34.5764 50.4427 42.0438 39.2406 42.0438 25.4713C42.0438 11.7021 34.5765 0.5 25.3977 0.5ZM25.3977 48.2409C17.0284 48.2409 10.2194 38.0266 10.2194 25.4713C10.2194 12.9162 17.0284 2.70176 25.3977 2.70176C33.7671 2.70176 40.5761 12.9162 40.5761 25.4713C40.5761 38.0266 33.7672 48.2409 25.3977 48.2409Z" fill="#2F2E41"/>
<path d="M16.5247 31.0143C16.0363 29.2573 15.7888 27.3924 15.7888 25.4711C15.7888 17.5228 20.0993 11.0563 25.3979 11.0563C27.2402 11.0563 29.0299 11.8404 30.5735 13.3236C30.9146 13.6513 31.3685 13.5024 31.5873 12.9903C31.8059 12.4784 31.7065 11.7975 31.3652 11.4696C29.5848 9.75869 27.5213 8.85449 25.3979 8.85449C19.2901 8.85449 14.321 16.3088 14.321 25.4711C14.321 27.6848 14.6067 29.8349 15.1701 31.8617C15.2876 32.2845 15.5603 32.5394 15.8477 32.5394C15.9418 32.5394 16.0375 32.5118 16.1298 32.4541C16.5038 32.2202 16.6807 31.5755 16.5247 31.0143Z" fill="#2F2E41"/>
<path d="M19.2598 36.5625C18.7309 35.9029 18.248 35.1567 17.8244 34.3445C17.5748 33.8658 17.1135 33.781 16.7943 34.1556C16.475 34.5302 16.4187 35.2222 16.6684 35.7009C17.1561 36.6366 17.7124 37.496 18.3216 38.2555C18.4587 38.4264 18.6249 38.5097 18.7903 38.5097C19.0009 38.5097 19.21 38.3743 19.355 38.1125C19.6142 37.645 19.5715 36.9511 19.2598 36.5625Z" fill="#2F2E41"/>
<path d="M33.1019 15.0605C32.7826 15.4348 32.7258 16.1266 32.9753 16.6057C34.3044 19.1583 35.0069 22.2238 35.0069 25.4711C35.0069 33.4194 30.6963 39.886 25.3978 39.886C24.1184 39.886 22.8762 39.5152 21.7058 38.7837C21.3318 38.55 20.9021 38.8155 20.7463 39.3767C20.5904 39.9379 20.7674 40.5825 21.1416 40.8162C22.4917 41.66 23.9238 42.0876 25.3979 42.0876C31.5056 42.0876 36.4747 34.6334 36.4747 25.4711C36.4747 21.7281 35.6647 18.1937 34.1322 15.2503C33.8825 14.7713 33.4212 14.6862 33.1019 15.0605Z" fill="#2F2E41"/>
<path d="M49.2662 2.88672C48.8609 2.88672 48.5323 3.37962 48.5323 3.9876V13.5358C48.5323 14.5073 48.157 15.3478 47.6131 15.7544V3.9876C47.6131 3.37962 47.2846 2.88672 46.8793 2.88672C46.474 2.88672 46.1454 3.37962 46.1454 3.9876V15.7544C45.6017 15.3478 45.2263 14.5073 45.2263 13.5358V3.9876C45.2263 3.37962 44.8977 2.88672 44.4924 2.88672C44.0871 2.88672 43.7585 3.37962 43.7585 3.9876V13.5358C43.7585 15.7379 44.7777 17.5886 46.1454 18.0851V46.9544C46.1454 47.5625 46.474 48.0553 46.8793 48.0553C47.2846 48.0553 47.6131 47.5625 47.6131 46.9544V18.0853C48.9809 17.5888 50 15.738 50 13.5358V3.9876C50 3.37962 49.6715 2.88672 49.2662 2.88672Z" fill="#2F2E41"/>
<path d="M3.91624 2.88672C1.57368 2.88672 0 8.39304 0 13.5358C0 16.399 1.3727 18.7889 3.18239 19.3058V46.9544C3.18239 47.5625 3.51096 48.0553 3.91624 48.0553C4.32153 48.0553 4.6501 47.5625 4.6501 46.9544V19.3058C6.45988 18.7889 7.83258 16.399 7.83258 13.5358C7.83258 8.39304 6.2589 2.88672 3.91624 2.88672ZM3.91624 17.209C2.56614 17.209 1.46771 15.5612 1.46771 13.5358C1.46771 8.98649 2.81409 5.08848 3.91624 5.08848C5.0184 5.08848 6.36487 8.98649 6.36487 13.5358C6.36487 15.5612 5.26644 17.209 3.91624 17.209Z" fill="#2F2E41"/>
</g>
<defs>
<clipPath id="clip0_76_35">
<rect width="50" height="50" fill="white" transform="translate(0 0.5)"/>
</clipPath>
</defs>
</svg>
