<svg width="771" height="425" viewBox="0 0 771 425" fill="none" xmlns="http://www.w3.org/2000/svg">
<g clip-path="url(#clip0_25_229)">
<path d="M695.465 175.325H243.115C241.194 175.325 239.352 176.295 237.994 178.021C236.636 179.746 235.873 182.087 235.873 184.528C235.873 186.968 236.636 189.309 237.994 191.035C239.352 192.76 241.194 193.73 243.115 193.73H255.928V413.88C255.928 416.321 256.691 418.661 258.049 420.387C259.407 422.113 261.249 423.083 263.17 423.083C265.091 423.083 266.933 422.113 268.291 420.387C269.649 418.661 270.412 416.321 270.412 413.88L270.522 193.73H633.578L667.053 413.88C667.053 416.321 667.816 418.661 669.175 420.387C670.533 422.113 672.375 423.083 674.296 423.083C676.216 423.083 678.058 422.113 679.416 420.387C680.775 418.661 681.538 416.321 681.538 413.88L683.645 193.73H695.465C697.385 193.73 699.227 192.76 700.586 191.035C701.944 189.309 702.707 186.968 702.707 184.528C702.707 182.087 701.944 179.746 700.586 178.021C699.227 176.295 697.385 175.325 695.465 175.325Z" fill="#CCCCCC"/>
<path d="M321.524 134.32V173.29H244.689C242.675 173.379 240.667 172.963 238.78 172.066C236.893 171.169 235.163 169.809 233.69 168.062C232.216 166.316 231.028 164.218 230.193 161.888C229.357 159.558 228.891 157.042 228.821 154.483C228.751 151.924 229.078 149.373 229.784 146.975C230.49 144.577 231.561 142.379 232.935 140.507C234.31 138.634 235.961 137.124 237.794 136.063C239.628 135.002 241.608 134.409 243.622 134.32C243.977 134.305 244.333 134.305 244.689 134.32L321.524 134.32Z" fill="#F2F2F2"/>
<path d="M323.411 172.99C323.411 173.388 323.287 173.769 323.066 174.05C322.844 174.331 322.544 174.489 322.232 174.489H243.32C239.036 174.485 234.929 172.32 231.901 168.47C228.873 164.619 227.172 159.398 227.172 153.955C227.172 148.511 228.873 143.291 231.901 139.44C234.929 135.59 239.036 133.425 243.32 133.421H322.232C322.387 133.42 322.54 133.459 322.684 133.534C322.827 133.609 322.958 133.719 323.068 133.859C323.177 133.998 323.265 134.163 323.324 134.345C323.384 134.527 323.414 134.723 323.414 134.92C323.414 135.117 323.384 135.312 323.324 135.494C323.265 135.676 323.177 135.842 323.068 135.981C322.958 136.12 322.827 136.231 322.684 136.306C322.54 136.381 322.387 136.419 322.232 136.419H243.32C239.664 136.426 236.159 138.276 233.575 141.564C230.992 144.852 229.54 149.309 229.54 153.955C229.54 158.601 230.992 163.058 233.575 166.346C236.159 169.634 239.664 171.484 243.32 171.491H322.232C322.544 171.491 322.844 171.649 323.066 171.931C323.287 172.212 323.411 172.593 323.411 172.99Z" fill="#103D80"/>
<path d="M321.524 143.313H238.956C238.893 143.314 238.833 143.283 238.789 143.227C238.745 143.171 238.719 143.096 238.719 143.016C238.718 142.937 238.742 142.861 238.786 142.804C238.83 142.747 238.889 142.715 238.951 142.714H321.524C321.586 142.715 321.645 142.747 321.689 142.803C321.733 142.859 321.757 142.935 321.757 143.014C321.757 143.093 321.733 143.168 321.689 143.225C321.645 143.281 321.586 143.313 321.524 143.313Z" fill="#CCCCCC"/>
<path d="M321.524 150.508H238.956C238.893 150.508 238.833 150.477 238.789 150.421C238.745 150.366 238.719 150.29 238.719 150.211C238.718 150.131 238.742 150.055 238.786 149.998C238.83 149.942 238.889 149.909 238.951 149.908H321.524C321.586 149.909 321.645 149.941 321.689 149.997C321.733 150.053 321.757 150.129 321.757 150.208C321.757 150.287 321.733 150.363 321.689 150.419C321.645 150.475 321.586 150.507 321.524 150.508Z" fill="#CCCCCC"/>
<path d="M321.524 157.702H238.956C238.893 157.702 238.833 157.671 238.789 157.616C238.745 157.56 238.719 157.484 238.719 157.405C238.718 157.326 238.742 157.249 238.786 157.193C238.83 157.136 238.889 157.104 238.951 157.103H321.524C321.586 157.103 321.645 157.135 321.689 157.191C321.733 157.248 321.757 157.323 321.757 157.402C321.757 157.481 321.733 157.557 321.689 157.613C321.645 157.669 321.586 157.701 321.524 157.702Z" fill="#CCCCCC"/>
<path d="M321.524 164.896H238.956C238.893 164.897 238.833 164.866 238.789 164.81C238.745 164.754 238.719 164.679 238.719 164.599C238.718 164.52 238.742 164.444 238.786 164.387C238.83 164.33 238.889 164.298 238.951 164.297H321.524C321.586 164.298 321.645 164.33 321.689 164.386C321.733 164.442 321.757 164.518 321.757 164.597C321.757 164.676 321.733 164.751 321.689 164.808C321.645 164.864 321.586 164.896 321.524 164.896Z" fill="#CCCCCC"/>
<path d="M307.04 93.2633V132.233H230.205C226.138 132.413 222.181 130.532 219.206 127.005C216.23 123.478 214.479 118.594 214.337 113.426C214.196 108.258 215.675 103.231 218.451 99.4496C221.227 95.6683 225.071 93.443 229.138 93.2633C229.493 93.2475 229.849 93.2475 230.205 93.2633H307.04Z" fill="#F2F2F2"/>
<path d="M308.927 131.933C308.927 132.331 308.803 132.712 308.581 132.993C308.36 133.274 308.06 133.432 307.748 133.432H228.836C224.55 133.432 220.44 131.269 217.409 127.418C214.379 123.567 212.676 118.344 212.676 112.898C212.676 107.452 214.379 102.229 217.409 98.3785C220.44 94.5277 224.55 92.3643 228.836 92.3643H307.748C307.902 92.3643 308.056 92.403 308.199 92.4783C308.342 92.5537 308.472 92.6641 308.582 92.8032C308.691 92.9424 308.778 93.1077 308.837 93.2895C308.897 93.4714 308.927 93.6663 308.927 93.8631C308.927 94.0599 308.897 94.2548 308.837 94.4366C308.778 94.6185 308.691 94.7837 308.582 94.9229C308.472 95.0621 308.342 95.1725 308.199 95.2478C308.056 95.3231 307.902 95.3619 307.748 95.3619H228.836C225.176 95.3619 221.666 97.2095 219.078 100.498C216.489 103.787 215.035 108.247 215.035 112.898C215.035 117.549 216.489 122.01 219.078 125.298C221.666 128.587 225.176 130.435 228.836 130.435H307.748C308.06 130.435 308.36 130.593 308.581 130.874C308.803 131.155 308.927 131.536 308.927 131.933Z" fill="#3F3D56"/>
<path d="M307.04 102.256H224.472C224.409 102.257 224.349 102.226 224.305 102.17C224.26 102.114 224.235 102.039 224.235 101.959C224.234 101.88 224.258 101.804 224.302 101.747C224.345 101.69 224.405 101.658 224.467 101.657H307.04C307.102 101.658 307.161 101.689 307.205 101.746C307.249 101.802 307.273 101.877 307.273 101.956C307.273 102.035 307.249 102.111 307.205 102.167C307.161 102.224 307.102 102.255 307.04 102.256Z" fill="#CCCCCC"/>
<path d="M307.04 109.451H224.472C224.409 109.452 224.349 109.421 224.305 109.365C224.26 109.309 224.235 109.233 224.235 109.154C224.234 109.075 224.258 108.998 224.302 108.942C224.345 108.885 224.405 108.853 224.467 108.852H307.04C307.102 108.852 307.161 108.884 307.205 108.94C307.249 108.997 307.273 109.072 307.273 109.151C307.273 109.23 307.249 109.306 307.205 109.362C307.161 109.418 307.102 109.45 307.04 109.451Z" fill="#CCCCCC"/>
<path d="M307.04 116.645H224.472C224.409 116.646 224.349 116.615 224.305 116.559C224.26 116.503 224.235 116.428 224.235 116.348C224.234 116.269 224.258 116.193 224.302 116.136C224.345 116.079 224.405 116.047 224.467 116.046H307.04C307.102 116.047 307.161 116.079 307.205 116.135C307.249 116.191 307.273 116.267 307.273 116.346C307.273 116.425 307.249 116.5 307.205 116.557C307.161 116.613 307.102 116.645 307.04 116.645Z" fill="#CCCCCC"/>
<path d="M307.04 123.84H224.472C224.409 123.84 224.349 123.809 224.305 123.753C224.26 123.698 224.235 123.622 224.235 123.543C224.234 123.463 224.258 123.387 224.302 123.33C224.345 123.274 224.405 123.241 224.467 123.24H307.04C307.102 123.241 307.161 123.273 307.205 123.329C307.249 123.385 307.273 123.461 307.273 123.54C307.273 123.619 307.249 123.695 307.205 123.751C307.161 123.807 307.102 123.839 307.04 123.84Z" fill="#CCCCCC"/>
<path d="M396.422 313.222V279.244C396.422 277.742 395.953 276.302 395.117 275.24C394.281 274.178 393.148 273.581 391.966 273.581H290.577C289.395 273.581 288.261 274.178 287.426 275.24C286.59 276.302 286.12 277.742 286.12 279.244V313.222H396.422Z" fill="#1F4CC0"/>
<path d="M396.422 325.964H286.12V369.852H396.422V325.964Z" fill="#1F4CC0"/>
<path d="M286.12 382.594V416.572C286.12 418.074 286.59 419.515 287.426 420.577C288.261 421.639 289.395 422.235 290.577 422.235H391.966C393.148 422.235 394.281 421.639 395.117 420.577C395.953 419.515 396.422 418.074 396.422 416.572V382.594H286.12Z" fill="#1F4CC0"/>
<path d="M340.714 299.065C342.56 299.065 344.057 297.163 344.057 294.818C344.057 292.472 342.56 290.57 340.714 290.57C338.868 290.57 337.372 292.472 337.372 294.818C337.372 297.163 338.868 299.065 340.714 299.065Z" fill="white"/>
<path d="M340.714 355.695C342.56 355.695 344.057 353.793 344.057 351.447C344.057 349.102 342.56 347.2 340.714 347.2C338.868 347.2 337.372 349.102 337.372 351.447C337.372 353.793 338.868 355.695 340.714 355.695Z" fill="white"/>
<path d="M340.893 411.126C342.739 411.126 344.236 409.224 344.236 406.879C344.236 404.533 342.739 402.631 340.893 402.631C339.047 402.631 337.551 404.533 337.551 406.879C337.551 409.224 339.047 411.126 340.893 411.126Z" fill="white"/>
<path d="M383.917 234.839V273.809H307.082C303.017 273.985 299.063 272.103 296.089 268.576C293.116 265.05 291.366 260.167 291.225 255.002C291.083 249.836 292.561 244.811 295.335 241.03C298.108 237.249 301.949 235.022 306.014 234.839C306.37 234.823 306.726 234.823 307.082 234.839H383.917Z" fill="#F2F2F2"/>
<path d="M385.804 273.509C385.804 273.907 385.68 274.288 385.459 274.569C385.237 274.85 384.937 275.008 384.625 275.008H305.713C301.428 275.009 297.319 272.848 294.287 269C291.256 265.152 289.552 259.931 289.55 254.486C289.547 249.042 291.246 243.819 294.274 239.966C297.301 236.113 301.409 233.945 305.694 233.94H384.625C384.78 233.939 384.934 233.978 385.077 234.053C385.22 234.128 385.351 234.238 385.461 234.378C385.571 234.517 385.658 234.682 385.717 234.864C385.777 235.046 385.807 235.242 385.807 235.439C385.807 235.636 385.777 235.831 385.717 236.013C385.658 236.195 385.571 236.361 385.461 236.5C385.351 236.639 385.22 236.75 385.077 236.825C384.934 236.9 384.78 236.938 384.625 236.938H305.713C302.056 236.944 298.551 238.794 295.966 242.082C293.382 245.37 291.931 249.827 291.931 254.474C291.931 259.121 293.382 263.578 295.966 266.866C298.551 270.154 302.056 272.004 305.713 272.01H384.625C384.937 272.011 385.237 272.168 385.459 272.45C385.68 272.731 385.804 273.112 385.804 273.509Z" fill="#3F3D56"/>
<path d="M383.917 243.832H301.349C301.287 243.832 301.227 243.801 301.182 243.746C301.138 243.69 301.112 243.614 301.112 243.535C301.111 243.456 301.135 243.379 301.179 243.323C301.223 243.266 301.282 243.233 301.345 243.232H383.917C383.979 243.233 384.039 243.265 384.082 243.321C384.126 243.377 384.151 243.453 384.151 243.532C384.151 243.611 384.126 243.687 384.082 243.743C384.039 243.799 383.979 243.831 383.917 243.832Z" fill="#CCCCCC"/>
<path d="M383.917 251.027H301.349C301.287 251.027 301.227 250.996 301.182 250.941C301.138 250.885 301.112 250.809 301.112 250.73C301.111 250.65 301.135 250.574 301.179 250.517C301.223 250.461 301.282 250.428 301.345 250.427H383.917C383.979 250.428 384.039 250.46 384.082 250.516C384.126 250.572 384.151 250.648 384.151 250.727C384.151 250.806 384.126 250.882 384.082 250.938C384.039 250.994 383.979 251.026 383.917 251.027Z" fill="#CCCCCC"/>
<path d="M383.917 258.221H301.349C301.287 258.222 301.227 258.191 301.182 258.135C301.138 258.079 301.112 258.003 301.112 257.924C301.111 257.845 301.135 257.768 301.179 257.712C301.223 257.655 301.282 257.623 301.345 257.622H383.917C383.979 257.622 384.039 257.654 384.082 257.71C384.126 257.767 384.151 257.842 384.151 257.921C384.151 258 384.126 258.076 384.082 258.132C384.039 258.188 383.979 258.22 383.917 258.221Z" fill="#CCCCCC"/>
<path d="M383.917 265.415H301.349C301.287 265.416 301.227 265.385 301.182 265.329C301.138 265.274 301.112 265.198 301.112 265.118C301.111 265.039 301.135 264.963 301.179 264.906C301.223 264.849 301.282 264.817 301.345 264.816H383.917C383.979 264.817 384.039 264.849 384.082 264.905C384.126 264.961 384.151 265.037 384.151 265.116C384.151 265.195 384.126 265.27 384.082 265.327C384.039 265.383 383.979 265.415 383.917 265.415Z" fill="#CCCCCC"/>
<path d="M293.678 80.2632H258.671C258.339 80.2628 258.011 80.3597 257.713 80.5463L248.878 86.1668C248.587 86.3239 248.339 86.5862 248.165 86.921C247.99 87.2558 247.897 87.6484 247.897 88.0498C247.897 88.4512 247.99 88.8438 248.165 89.1786C248.339 89.5134 248.587 89.7757 248.878 89.9327L257.713 95.5532C258.011 95.7399 258.339 95.8368 258.671 95.8364H293.678C294.16 95.8719 294.634 95.6644 294.997 95.259C295.36 94.8536 295.583 94.2828 295.617 93.6703V82.4292C295.583 81.8167 295.36 81.246 294.997 80.8406C294.634 80.4352 294.16 80.2277 293.678 80.2632Z" fill="#3F3D56"/>
<path d="M295.617 82.4293V93.6703C295.583 94.2828 295.36 94.8536 294.997 95.2591C294.634 95.6645 294.16 95.872 293.678 95.8365H286.704V80.2632H293.678C294.16 80.2277 294.634 80.4352 294.997 80.8406C295.36 81.246 295.583 81.8168 295.617 82.4293Z" fill="#1F4CC0"/>
<path d="M83.8009 300.527C88.3085 302.54 93.1483 303.045 97.8538 301.991C102.559 300.938 106.972 298.363 110.667 294.513C120.077 284.477 123.027 267.943 125.428 252.633C127.795 237.539 130.162 222.444 132.528 207.35L117.663 220.356C106.973 229.71 96.0414 239.363 88.6395 252.911C81.2375 266.459 78.0065 284.954 83.9537 299.613" fill="#1F4CC0"/>
<path d="M85.0716 355.352C83.567 341.426 82.0199 327.321 83.0753 313.246C84.0126 300.745 87.0138 288.536 93.1241 278.525C96.3674 273.222 100.314 268.677 104.786 265.097C105.952 264.162 107.026 266.51 105.864 267.441C98.1262 273.656 92.141 282.832 88.7717 293.648C85.0504 305.675 84.4528 318.786 85.0941 331.562C85.4819 339.289 86.3038 346.964 87.132 354.63C87.1973 354.977 87.1566 355.342 87.0181 355.652C86.8795 355.962 86.6536 356.194 86.3858 356.3C86.1127 356.394 85.8215 356.347 85.5755 356.169C85.3294 355.992 85.1484 355.698 85.0716 355.352Z" fill="#CCCCCC"/>
<path d="M99.5635 330.71C101.497 334.443 104.154 337.481 107.28 339.531C110.405 341.581 113.893 342.573 117.408 342.413C126.442 341.868 133.973 333.857 140.752 326.251L160.803 303.754L147.533 302.947C137.989 302.367 128.199 301.826 119.109 305.565C110.019 309.305 101.636 318.305 99.9737 330.261" fill="#1F4CC0"/>
<path d="M80.8196 363.358C88.0614 347.075 96.4612 328.979 111.47 323.196C115.644 321.593 120.02 321.019 124.362 321.504C125.731 321.654 125.389 324.335 124.023 324.185C116.743 323.417 109.478 325.86 103.449 331.102C97.6482 336.119 93.1315 343.095 89.3085 350.492C86.9669 355.023 84.8694 359.747 82.7714 364.464C82.101 365.971 80.1413 364.883 80.8196 363.358Z" fill="#CCCCCC"/>
<path d="M69.2162 380.496C69.4602 376.904 70.4753 373.465 72.1509 370.555C73.8266 367.644 76.0985 365.374 78.7193 363.991V354.578H91.1441V364.288C93.6359 365.739 95.7804 368.003 97.3589 370.851C98.9374 373.698 99.8935 377.026 100.13 380.496L103.051 423.651H66.2946L69.2162 380.496Z" fill="#103D80"/>
<path d="M491.761 174.44L488.065 172.463L485.529 148.918H451.764L449.015 172.366L445.709 174.467C445.55 174.568 445.424 174.733 445.349 174.937C445.274 175.14 445.255 175.37 445.296 175.589C445.336 175.808 445.434 176.003 445.572 176.142C445.711 176.282 445.883 176.358 446.06 176.358H491.456C491.638 176.358 491.813 176.278 491.954 176.132C492.094 175.986 492.19 175.783 492.226 175.557C492.262 175.331 492.235 175.097 492.15 174.893C492.066 174.69 491.928 174.529 491.761 174.44Z" fill="#E6E6E6"/>
<path d="M551.765 152.051H385.899C385.029 152.048 384.195 151.607 383.58 150.825C382.966 150.042 382.62 148.981 382.62 147.875V118.155H555.043V147.875C555.043 148.981 554.698 150.042 554.083 150.825C553.469 151.607 552.635 152.048 551.765 152.051Z" fill="#CCCCCC"/>
<path d="M555.217 132.201H382.469V5.03361C382.47 3.69906 382.888 2.41961 383.631 1.47596C384.373 0.5323 385.38 0.00149328 386.43 0H551.255C552.305 0.00149325 553.312 0.532301 554.055 1.47596C554.798 2.41961 555.215 3.69905 555.217 5.03361L555.217 132.201Z" fill="#3F3D56"/>
<path d="M544.899 122.971H392.787C391.977 122.97 391.201 122.561 390.628 121.833C390.055 121.106 389.733 120.12 389.733 119.091V13.1103C389.733 12.0814 390.055 11.095 390.628 10.3675C391.201 9.63992 391.977 9.23067 392.787 9.22949H544.899C545.709 9.23067 546.485 9.63992 547.058 10.3675C547.63 11.095 547.952 12.0814 547.953 13.1103V119.091C547.952 120.12 547.63 121.106 547.058 121.833C546.485 122.561 545.709 122.97 544.899 122.971Z" fill="#1F4CC0"/>
<path d="M504.835 160.366C505.817 159.214 506.986 158.349 508.26 157.832C509.533 157.316 510.881 157.16 512.207 157.377C513.533 157.594 514.805 158.177 515.934 159.087C517.064 159.996 518.022 161.209 518.743 162.64L539.318 157.991L544.591 173.191L515.462 179.236C513.49 180.615 511.188 181.027 508.993 180.393C506.798 179.76 504.863 178.125 503.553 175.799C502.243 173.473 501.65 170.618 501.886 167.773C502.122 164.929 503.172 162.293 504.835 160.366Z" fill="#FFB6B6"/>
<path d="M523.884 179.774L545.334 179.434L548.049 179.387L591.69 178.688C591.69 178.688 603.541 164.322 613.86 149.531L612.414 136.237C611.003 123.191 605.91 111.241 598.083 102.61C583.303 115.159 574.732 139.998 574.732 139.998L547.673 148.222L544.966 149.044L528.153 154.15L523.884 179.774Z" fill="#103D80"/>
<path d="M633.689 261.48H593.65C593.65 263.66 549.882 265.43 549.882 265.43C548.916 266.353 548.036 267.413 547.259 268.589C544.922 272.13 543.645 276.606 543.653 281.227V284.386C543.655 289.622 545.292 294.644 548.206 298.347C551.12 302.049 555.072 304.13 559.193 304.132H633.689C637.809 304.128 641.759 302.046 644.673 298.344C647.586 294.642 649.225 289.622 649.228 284.386V281.227C649.223 275.992 647.584 270.974 644.671 267.272C641.758 263.57 637.808 261.488 633.689 261.48Z" fill="#E4E4E4"/>
<path d="M604.573 303.348H588.411V421.883H604.573V303.348Z" fill="#E4E4E4"/>
<path d="M542.414 421.161C542.414 423.38 566.904 422.02 597.113 422.02C627.323 422.02 651.813 423.38 651.813 421.161C651.813 418.942 627.323 401.347 597.113 401.347C566.904 401.347 542.414 418.942 542.414 421.161Z" fill="#E4E4E4"/>
<path d="M531.557 407.618L519.529 407.617L513.807 348.665L531.559 348.666L531.557 407.618Z" fill="#FFB6B6"/>
<path d="M534.625 422.432L495.842 422.431V421.807C495.842 416.72 497.432 411.841 500.263 408.244C503.094 404.647 506.934 402.626 510.937 402.626H510.938L534.625 402.627L534.625 422.432Z" fill="#2F2E41"/>
<path d="M496.008 407.618L483.98 407.617L478.258 348.665L496.01 348.666L496.008 407.618Z" fill="#FFB6B6"/>
<path d="M499.075 422.432L460.292 422.431V421.807C460.293 416.72 461.883 411.841 464.714 408.244C467.545 404.647 471.384 402.626 475.388 402.626H475.389L499.076 402.627L499.075 422.432Z" fill="#2F2E41"/>
<path d="M603.751 68.2266C615.301 68.2266 624.664 56.3289 624.664 41.6524C624.664 26.9758 615.301 15.0781 603.751 15.0781C592.201 15.0781 582.838 26.9758 582.838 41.6524C582.838 56.3289 592.201 68.2266 603.751 68.2266Z" fill="#FFB6B6"/>
<path d="M637.599 223.729C637.599 223.729 644.616 270.877 617.917 276.881C591.219 282.886 552.678 287.105 552.678 287.105L535.371 389.711L512.12 387.074C512.12 387.074 515.212 263.559 522.817 253.896C530.422 244.232 578.487 215.298 578.487 215.298L637.599 223.729Z" fill="#2F2E41"/>
<path d="M585.454 203.968L573.778 218.853C573.778 218.853 489.465 236.11 486.213 260.855C481.302 298.213 475.502 379.452 475.502 379.452L500.851 377.036L510.792 284.69L551.351 272.966L597.495 241.011L585.454 203.968Z" fill="#2F2E41"/>
<path d="M623.876 25.7894C621.811 20.84 619.188 10.9759 615.021 9.14643C612.707 8.17146 610.316 7.52405 607.89 7.21597L600.807 10.6774L604.662 6.86792C603.911 6.81111 603.161 6.76466 602.412 6.72859L597.633 9.06402L600.078 6.64778C595.623 6.58968 591.024 7.1783 587.572 10.6245C584.629 13.5624 581.714 24.6918 581.242 29.4093C580.738 33.9222 580.915 38.5158 581.762 42.945L582.972 44.4072C583.395 43.1738 583.714 41.8864 583.922 40.5669C584.355 38.1016 585.189 35.7781 586.368 33.7445C587.548 31.711 589.048 30.0121 590.773 28.756L590.839 28.7088C592.869 27.2572 595.331 27.3241 597.659 27.4306L608.714 27.936C611.373 28.0577 614.237 28.2715 616.311 30.3914C617.629 31.9552 618.665 33.8626 619.348 35.9829C620.378 38.6253 622.392 48.5919 622.392 48.5919C622.392 48.5919 623.531 46.7106 624.077 48.1108C624.953 44.4574 625.485 40.6853 625.663 36.873C625.837 33.0437 625.221 29.223 623.876 25.7894Z" fill="#2F2E41"/>
<path d="M697.02 53.3225C695.686 53.4341 694.388 53.916 693.216 54.7344C692.045 55.5527 691.028 56.6875 690.239 58.0588C689.45 59.4301 688.907 61.0046 688.649 62.6714C688.39 64.3382 688.423 66.0567 688.744 67.7059L671.926 83.4692L676.972 98.7918L700.476 76.1071C702.62 75.2387 704.44 73.4009 705.589 70.9418C706.739 68.4827 707.138 65.5732 706.712 62.7647C706.286 59.9562 705.065 57.4438 703.278 55.7035C701.492 53.9633 699.265 53.1161 697.02 53.3225Z" fill="#FFB6B6"/>
<path d="M694.314 85.503L652.154 145C652.154 145 631.993 136.799 616.401 127.907L609.396 100.569C607.769 94.227 607.075 87.5586 607.348 80.8971C628.963 73.5883 654.105 100.783 654.105 100.783L685.663 69.3726L694.314 85.503Z" fill="#103D80"/>
<path d="M595.94 228.123C588.418 224.821 580.64 221.408 572.251 220.126L571.891 220.071L571.99 219.628C580.674 180.882 578.507 156.097 574.251 118.866C573.346 110.835 574.509 102.648 577.567 95.526C580.624 88.4041 585.412 82.7296 591.216 79.3493L591.267 79.3197L615.227 77.3851L615.282 77.3809L632.708 83.8933C635.215 84.8371 637.409 86.7992 638.954 89.479C640.499 92.1587 641.31 95.4084 641.263 98.7301C641.075 110.974 641.475 124.644 641.899 139.117C642.85 171.585 643.833 205.159 638.253 226.942L638.224 227.056L638.15 227.131C633.02 232.439 626.594 235.307 619.979 235.241C612.157 235.241 604.175 231.738 595.94 228.123Z" fill="#103D80"/>
<path d="M769.886 425H1.11416C0.81867 425 0.535281 424.851 0.326336 424.585C0.11739 424.32 0 423.96 0 423.584C0 423.209 0.11739 422.849 0.326336 422.583C0.535281 422.318 0.81867 422.168 1.11416 422.168H769.886C770.181 422.168 770.465 422.318 770.674 422.583C770.883 422.849 771 423.209 771 423.584C771 423.96 770.883 424.32 770.674 424.585C770.465 424.851 770.181 425 769.886 425Z" fill="#D8D4D4"/>
</g>
<defs>
<clipPath id="clip0_25_229">
<rect width="771" height="425" fill="white"/>
</clipPath>
</defs>
</svg>
